<mxfile host="65bd71144e">
    <diagram id="x6dzudPnZcYSqZGUbYbD" name="Page-1">
        <mxGraphModel dx="1664" dy="748" grid="1" gridSize="10" guides="1" tooltips="0" connect="1" arrows="1" fold="1" page="1" pageScale="1" pageWidth="2336" pageHeight="1654" math="0" shadow="0">
            <root>
                <mxCell id="0"/>
                <mxCell id="1" parent="0"/>
                <mxCell id="5" value="" style="shape=table;startSize=0;container=1;collapsible=0;childLayout=tableLayout;align=center;fontColor=#FFFFFF;fontSize=12;rounded=0;movable=0;resizable=0;rotatable=0;deletable=0;editable=0;connectable=0;" parent="1" vertex="1">
                    <mxGeometry x="560" y="40" width="160" height="130" as="geometry"/>
                </mxCell>
                <mxCell id="6" value="" style="shape=tableRow;horizontal=0;startSize=0;swimlaneHead=0;swimlaneBody=0;top=0;left=0;bottom=0;right=0;collapsible=0;dropTarget=0;fillColor=none;points=[[0,0.5],[1,0.5]];portConstraint=eastwest;fontColor=#FFFFFF;fontSize=12;align=center;rounded=0;movable=0;resizable=0;rotatable=0;deletable=0;editable=0;connectable=0;" parent="5" vertex="1">
                    <mxGeometry width="160" height="33" as="geometry"/>
                </mxCell>
                <mxCell id="7" value="&lt;font style=&quot;font-size: 12px;&quot;&gt;User&lt;/font&gt;" style="shape=partialRectangle;html=1;whiteSpace=wrap;connectable=0;overflow=hidden;fillColor=none;top=0;left=0;bottom=0;right=0;pointerEvents=1;rowspan=1;colspan=2;align=center;fontColor=#FFFFFF;fontSize=12;rounded=0;movable=0;resizable=0;rotatable=0;deletable=0;editable=0;" parent="6" vertex="1">
                    <mxGeometry width="160" height="33" as="geometry">
                        <mxRectangle width="80" height="33" as="alternateBounds"/>
                    </mxGeometry>
                </mxCell>
                <mxCell id="8" value="" style="shape=partialRectangle;html=1;whiteSpace=wrap;connectable=0;overflow=hidden;fillColor=none;top=0;left=0;bottom=0;right=0;pointerEvents=1;align=left;fontColor=#FFFFFF;rounded=0;" parent="6" vertex="1" visible="0">
                    <mxGeometry x="80" width="80" height="33" as="geometry">
                        <mxRectangle width="80" height="33" as="alternateBounds"/>
                    </mxGeometry>
                </mxCell>
                <mxCell id="9" value="" style="shape=tableRow;horizontal=0;startSize=0;swimlaneHead=0;swimlaneBody=0;top=0;left=0;bottom=0;right=0;collapsible=0;dropTarget=0;fillColor=none;points=[[0,0.5],[1,0.5]];portConstraint=eastwest;fontColor=#FFFFFF;fontSize=12;align=center;rounded=0;movable=0;resizable=0;rotatable=0;deletable=0;editable=0;connectable=0;" parent="5" vertex="1">
                    <mxGeometry y="33" width="160" height="32" as="geometry"/>
                </mxCell>
                <mxCell id="10" value="id" style="shape=partialRectangle;html=1;whiteSpace=wrap;connectable=0;overflow=hidden;fillColor=none;top=0;left=0;bottom=0;right=0;pointerEvents=1;align=center;fontColor=#FFFFFF;fontSize=12;rounded=0;movable=0;resizable=0;rotatable=0;deletable=0;editable=0;" parent="9" vertex="1">
                    <mxGeometry width="80" height="32" as="geometry">
                        <mxRectangle width="80" height="32" as="alternateBounds"/>
                    </mxGeometry>
                </mxCell>
                <mxCell id="11" value="BigAuto" style="shape=partialRectangle;html=1;whiteSpace=wrap;connectable=0;overflow=hidden;fillColor=none;top=0;left=0;bottom=0;right=0;pointerEvents=1;align=center;fontColor=#FFFFFF;fontSize=12;rounded=0;movable=0;resizable=0;rotatable=0;deletable=0;editable=0;" parent="9" vertex="1">
                    <mxGeometry x="80" width="80" height="32" as="geometry">
                        <mxRectangle width="80" height="32" as="alternateBounds"/>
                    </mxGeometry>
                </mxCell>
                <mxCell id="12" value="" style="shape=tableRow;horizontal=0;startSize=0;swimlaneHead=0;swimlaneBody=0;top=0;left=0;bottom=0;right=0;collapsible=0;dropTarget=0;fillColor=none;points=[[0,0.5],[1,0.5]];portConstraint=eastwest;fontColor=#FFFFFF;fontSize=12;align=center;rounded=0;movable=0;resizable=0;rotatable=0;deletable=0;editable=0;connectable=0;" parent="5" vertex="1">
                    <mxGeometry y="65" width="160" height="33" as="geometry"/>
                </mxCell>
                <mxCell id="13" value="username&lt;span style=&quot;white-space: pre; font-size: 12px;&quot;&gt;&#9;&lt;/span&gt;Char" style="shape=partialRectangle;html=1;whiteSpace=wrap;connectable=0;overflow=hidden;fillColor=none;top=0;left=0;bottom=0;right=0;pointerEvents=1;align=center;fontColor=#FFFFFF;fontSize=12;rounded=0;movable=0;resizable=0;rotatable=0;deletable=0;editable=0;" parent="12" vertex="1">
                    <mxGeometry width="80" height="33" as="geometry">
                        <mxRectangle width="80" height="33" as="alternateBounds"/>
                    </mxGeometry>
                </mxCell>
                <mxCell id="14" value="Char" style="shape=partialRectangle;html=1;whiteSpace=wrap;connectable=0;overflow=hidden;fillColor=none;top=0;left=0;bottom=0;right=0;pointerEvents=1;align=center;fontColor=#FFFFFF;fontSize=12;rounded=0;movable=0;resizable=0;rotatable=0;deletable=0;editable=0;" parent="12" vertex="1">
                    <mxGeometry x="80" width="80" height="33" as="geometry">
                        <mxRectangle width="80" height="33" as="alternateBounds"/>
                    </mxGeometry>
                </mxCell>
                <mxCell id="15" value="" style="shape=tableRow;horizontal=0;startSize=0;swimlaneHead=0;swimlaneBody=0;top=0;left=0;bottom=0;right=0;collapsible=0;dropTarget=0;fillColor=none;points=[[0,0.5],[1,0.5]];portConstraint=eastwest;fontColor=#FFFFFF;fontSize=12;align=center;rounded=0;movable=0;resizable=0;rotatable=0;deletable=0;editable=0;connectable=0;" parent="5" vertex="1">
                    <mxGeometry y="98" width="160" height="32" as="geometry"/>
                </mxCell>
                <mxCell id="16" value="password&lt;br style=&quot;font-size: 12px;&quot;&gt;" style="shape=partialRectangle;html=1;whiteSpace=wrap;connectable=0;overflow=hidden;fillColor=none;top=0;left=0;bottom=0;right=0;pointerEvents=1;align=center;fontColor=#FFFFFF;fontSize=12;rounded=0;movable=0;resizable=0;rotatable=0;deletable=0;editable=0;" parent="15" vertex="1">
                    <mxGeometry width="80" height="32" as="geometry">
                        <mxRectangle width="80" height="32" as="alternateBounds"/>
                    </mxGeometry>
                </mxCell>
                <mxCell id="17" value="Char" style="shape=partialRectangle;html=1;whiteSpace=wrap;connectable=0;overflow=hidden;fillColor=none;top=0;left=0;bottom=0;right=0;pointerEvents=1;align=center;fontColor=#FFFFFF;fontSize=12;rounded=0;movable=0;resizable=0;rotatable=0;deletable=0;editable=0;" parent="15" vertex="1">
                    <mxGeometry x="80" width="80" height="32" as="geometry">
                        <mxRectangle width="80" height="32" as="alternateBounds"/>
                    </mxGeometry>
                </mxCell>
                <mxCell id="18" value="" style="shape=table;startSize=0;container=1;collapsible=0;childLayout=tableLayout;fontColor=#FFFFFF;fontSize=12;labelBackgroundColor=default;align=center;fontFamily=Helvetica;rounded=0;movable=0;resizable=0;rotatable=0;deletable=0;editable=0;connectable=0;" parent="1" vertex="1">
                    <mxGeometry x="520" y="240" width="240" height="200" as="geometry"/>
                </mxCell>
                <mxCell id="19" value="" style="shape=tableRow;horizontal=0;startSize=0;swimlaneHead=0;swimlaneBody=0;top=0;left=0;bottom=0;right=0;collapsible=0;dropTarget=0;fillColor=none;points=[[0,0.5],[1,0.5]];portConstraint=eastwest;fontColor=#FFFFFF;fontSize=12;align=center;fontFamily=Helvetica;rounded=0;movable=0;resizable=0;rotatable=0;deletable=0;editable=0;connectable=0;" parent="18" vertex="1">
                    <mxGeometry width="240" height="40" as="geometry"/>
                </mxCell>
                <mxCell id="20" value="Following" style="shape=partialRectangle;whiteSpace=wrap;connectable=0;overflow=hidden;fillColor=none;top=0;left=0;bottom=0;right=0;pointerEvents=1;fontColor=#FFFFFF;rowspan=1;colspan=2;fontSize=12;align=center;fontFamily=Helvetica;rounded=0;movable=0;resizable=0;rotatable=0;deletable=0;editable=0;" parent="19" vertex="1">
                    <mxGeometry width="240" height="40" as="geometry">
                        <mxRectangle width="121" height="40" as="alternateBounds"/>
                    </mxGeometry>
                </mxCell>
                <mxCell id="21" value="" style="shape=partialRectangle;html=1;whiteSpace=wrap;connectable=0;overflow=hidden;fillColor=none;top=0;left=0;bottom=0;right=0;pointerEvents=1;fontColor=#CC0000;rounded=0;" parent="19" vertex="1" visible="0">
                    <mxGeometry x="121" width="119" height="40" as="geometry">
                        <mxRectangle width="119" height="40" as="alternateBounds"/>
                    </mxGeometry>
                </mxCell>
                <mxCell id="22" value="" style="shape=tableRow;horizontal=0;startSize=0;swimlaneHead=0;swimlaneBody=0;top=0;left=0;bottom=0;right=0;collapsible=0;dropTarget=0;fillColor=none;points=[[0,0.5],[1,0.5]];portConstraint=eastwest;fontColor=#FFFFFF;fontSize=12;align=center;fontFamily=Helvetica;rounded=0;movable=0;resizable=0;rotatable=0;deletable=0;editable=0;connectable=0;" parent="18" vertex="1">
                    <mxGeometry y="40" width="240" height="40" as="geometry"/>
                </mxCell>
                <mxCell id="23" value="id" style="shape=partialRectangle;whiteSpace=wrap;connectable=0;overflow=hidden;fillColor=none;top=0;left=0;bottom=0;right=0;pointerEvents=1;fontColor=#FFFFFF;fontSize=12;align=center;fontFamily=Helvetica;rounded=0;movable=0;resizable=0;rotatable=0;deletable=0;editable=0;" parent="22" vertex="1">
                    <mxGeometry width="121" height="40" as="geometry">
                        <mxRectangle width="121" height="40" as="alternateBounds"/>
                    </mxGeometry>
                </mxCell>
                <mxCell id="24" value="BigAuto" style="shape=partialRectangle;whiteSpace=wrap;connectable=0;overflow=hidden;fillColor=none;top=0;left=0;bottom=0;right=0;pointerEvents=1;fontColor=#FFFFFF;fontSize=12;align=center;fontFamily=Helvetica;rounded=0;movable=0;resizable=0;rotatable=0;deletable=0;editable=0;" parent="22" vertex="1">
                    <mxGeometry x="121" width="119" height="40" as="geometry">
                        <mxRectangle width="119" height="40" as="alternateBounds"/>
                    </mxGeometry>
                </mxCell>
                <mxCell id="25" value="" style="shape=tableRow;horizontal=0;startSize=0;swimlaneHead=0;swimlaneBody=0;top=0;left=0;bottom=0;right=0;collapsible=0;dropTarget=0;fillColor=none;points=[[0,0.5],[1,0.5]];portConstraint=eastwest;fontColor=#FFFFFF;fontSize=12;align=center;fontFamily=Helvetica;rounded=0;movable=0;resizable=0;rotatable=0;deletable=0;editable=0;connectable=0;" parent="18" vertex="1">
                    <mxGeometry y="80" width="240" height="40" as="geometry"/>
                </mxCell>
                <mxCell id="26" value="owner-following" style="shape=partialRectangle;whiteSpace=wrap;connectable=0;overflow=hidden;fillColor=none;top=0;left=0;bottom=0;right=0;pointerEvents=1;fontColor=#FFFFFF;fontSize=12;align=center;fontFamily=Helvetica;rounded=0;movable=0;resizable=0;rotatable=0;deletable=0;editable=0;" parent="25" vertex="1">
                    <mxGeometry width="121" height="40" as="geometry">
                        <mxRectangle width="121" height="40" as="alternateBounds"/>
                    </mxGeometry>
                </mxCell>
                <mxCell id="27" value="ForiegnKeyUser" style="shape=partialRectangle;whiteSpace=wrap;connectable=0;overflow=hidden;fillColor=none;top=0;left=0;bottom=0;right=0;pointerEvents=1;fontColor=#FFFFFF;fontSize=12;align=center;fontFamily=Helvetica;rounded=0;movable=0;resizable=0;rotatable=0;deletable=0;editable=0;" parent="25" vertex="1">
                    <mxGeometry x="121" width="119" height="40" as="geometry">
                        <mxRectangle width="119" height="40" as="alternateBounds"/>
                    </mxGeometry>
                </mxCell>
                <mxCell id="28" value="" style="shape=tableRow;horizontal=0;startSize=0;swimlaneHead=0;swimlaneBody=0;top=0;left=0;bottom=0;right=0;collapsible=0;dropTarget=0;fillColor=none;points=[[0,0.5],[1,0.5]];portConstraint=eastwest;fontColor=#FFFFFF;fontSize=12;align=center;fontFamily=Helvetica;rounded=0;movable=0;resizable=0;rotatable=0;deletable=0;editable=0;connectable=0;" parent="18" vertex="1">
                    <mxGeometry y="120" width="240" height="40" as="geometry"/>
                </mxCell>
                <mxCell id="29" value="followed" style="shape=partialRectangle;whiteSpace=wrap;connectable=0;overflow=hidden;fillColor=none;top=0;left=0;bottom=0;right=0;pointerEvents=1;fontColor=#FFFFFF;fontSize=12;align=center;fontFamily=Helvetica;rounded=0;movable=0;resizable=0;rotatable=0;deletable=0;editable=0;" parent="28" vertex="1">
                    <mxGeometry width="121" height="40" as="geometry">
                        <mxRectangle width="121" height="40" as="alternateBounds"/>
                    </mxGeometry>
                </mxCell>
                <mxCell id="30" value="ForiegnKeyUser" style="shape=partialRectangle;whiteSpace=wrap;connectable=0;overflow=hidden;fillColor=none;top=0;left=0;bottom=0;right=0;pointerEvents=1;fontColor=#FFFFFF;fontSize=12;align=center;fontFamily=Helvetica;rounded=0;movable=0;resizable=0;rotatable=0;deletable=0;editable=0;" parent="28" vertex="1">
                    <mxGeometry x="121" width="119" height="40" as="geometry">
                        <mxRectangle width="119" height="40" as="alternateBounds"/>
                    </mxGeometry>
                </mxCell>
                <mxCell id="31" value="" style="shape=tableRow;horizontal=0;startSize=0;swimlaneHead=0;swimlaneBody=0;top=0;left=0;bottom=0;right=0;collapsible=0;dropTarget=0;fillColor=none;points=[[0,0.5],[1,0.5]];portConstraint=eastwest;fontColor=#FFFFFF;fontSize=12;align=center;fontFamily=Helvetica;rounded=0;movable=0;resizable=0;rotatable=0;deletable=0;editable=0;connectable=0;" parent="18" vertex="1">
                    <mxGeometry y="160" width="240" height="40" as="geometry"/>
                </mxCell>
                <mxCell id="32" value="created_at" style="shape=partialRectangle;whiteSpace=wrap;connectable=0;overflow=hidden;fillColor=none;top=0;left=0;bottom=0;right=0;pointerEvents=1;fontColor=#FFFFFF;fontSize=12;align=center;fontFamily=Helvetica;rounded=0;movable=0;resizable=0;rotatable=0;deletable=0;editable=0;" parent="31" vertex="1">
                    <mxGeometry width="121" height="40" as="geometry">
                        <mxRectangle width="121" height="40" as="alternateBounds"/>
                    </mxGeometry>
                </mxCell>
                <mxCell id="33" value="DateTime" style="shape=partialRectangle;whiteSpace=wrap;connectable=0;overflow=hidden;fillColor=none;top=0;left=0;bottom=0;right=0;pointerEvents=1;fontColor=#FFFFFF;fontSize=12;align=center;fontFamily=Helvetica;rounded=0;movable=0;resizable=0;rotatable=0;deletable=0;editable=0;" parent="31" vertex="1">
                    <mxGeometry x="121" width="119" height="40" as="geometry">
                        <mxRectangle width="119" height="40" as="alternateBounds"/>
                    </mxGeometry>
                </mxCell>
                <mxCell id="43" value="" style="shape=table;startSize=0;container=1;collapsible=0;childLayout=tableLayout;labelBackgroundColor=none;fontSize=12;fontColor=#FFFFFF;align=center;rounded=0;movable=0;resizable=0;rotatable=0;deletable=0;editable=0;connectable=0;" parent="1" vertex="1">
                    <mxGeometry x="830" y="130" width="360" height="640" as="geometry"/>
                </mxCell>
                <mxCell id="44" value="" style="shape=tableRow;horizontal=0;startSize=0;swimlaneHead=0;swimlaneBody=0;top=0;left=0;bottom=0;right=0;collapsible=0;dropTarget=0;fillColor=none;points=[[0,0.5],[1,0.5]];portConstraint=eastwest;labelBackgroundColor=none;fontSize=12;fontColor=#FFFFFF;align=center;rounded=0;movable=0;resizable=0;rotatable=0;deletable=0;editable=0;connectable=0;" parent="43" vertex="1">
                    <mxGeometry width="360" height="40" as="geometry"/>
                </mxCell>
                <mxCell id="45" value="PlantInFocusPost" style="shape=partialRectangle;html=1;whiteSpace=wrap;connectable=0;overflow=hidden;fillColor=none;top=0;left=0;bottom=0;right=0;pointerEvents=1;labelBackgroundColor=none;fontSize=12;fontColor=#FFFFFF;rowspan=1;colspan=2;align=center;rounded=0;movable=0;resizable=0;rotatable=0;deletable=0;editable=0;" parent="44" vertex="1">
                    <mxGeometry width="360" height="40" as="geometry">
                        <mxRectangle width="180" height="40" as="alternateBounds"/>
                    </mxGeometry>
                </mxCell>
                <mxCell id="46" value="" style="shape=partialRectangle;html=1;whiteSpace=wrap;connectable=0;overflow=hidden;fillColor=none;top=0;left=0;bottom=0;right=0;pointerEvents=1;labelBackgroundColor=none;fontSize=12;fontColor=#FFFFFF;rounded=0;" parent="44" vertex="1" visible="0">
                    <mxGeometry x="180" width="180" height="40" as="geometry">
                        <mxRectangle width="180" height="40" as="alternateBounds"/>
                    </mxGeometry>
                </mxCell>
                <mxCell id="47" value="" style="shape=tableRow;horizontal=0;startSize=0;swimlaneHead=0;swimlaneBody=0;top=0;left=0;bottom=0;right=0;collapsible=0;dropTarget=0;fillColor=none;points=[[0,0.5],[1,0.5]];portConstraint=eastwest;labelBackgroundColor=none;fontSize=12;fontColor=#FFFFFF;align=center;fontFamily=Helvetica;rounded=0;movable=0;resizable=0;rotatable=0;deletable=0;editable=0;connectable=0;" parent="43" vertex="1">
                    <mxGeometry y="40" width="360" height="40" as="geometry"/>
                </mxCell>
                <mxCell id="48" value="id" style="shape=partialRectangle;whiteSpace=wrap;connectable=0;overflow=hidden;fillColor=none;top=0;left=0;bottom=0;right=0;pointerEvents=1;labelBackgroundColor=none;fontSize=12;fontColor=#FFFFFF;align=center;fontFamily=Helvetica;rounded=0;movable=0;resizable=0;rotatable=0;deletable=0;editable=0;" parent="47" vertex="1">
                    <mxGeometry width="180" height="40" as="geometry">
                        <mxRectangle width="180" height="40" as="alternateBounds"/>
                    </mxGeometry>
                </mxCell>
                <mxCell id="49" value="BigAuto" style="shape=partialRectangle;whiteSpace=wrap;connectable=0;overflow=hidden;fillColor=none;top=0;left=0;bottom=0;right=0;pointerEvents=1;labelBackgroundColor=none;fontSize=12;fontColor=#FFFFFF;align=center;fontFamily=Helvetica;rounded=0;movable=0;resizable=0;rotatable=0;deletable=0;editable=0;" parent="47" vertex="1">
                    <mxGeometry x="180" width="180" height="40" as="geometry">
                        <mxRectangle width="180" height="40" as="alternateBounds"/>
                    </mxGeometry>
                </mxCell>
                <mxCell id="50" value="" style="shape=tableRow;horizontal=0;startSize=0;swimlaneHead=0;swimlaneBody=0;top=0;left=0;bottom=0;right=0;collapsible=0;dropTarget=0;fillColor=none;points=[[0,0.5],[1,0.5]];portConstraint=eastwest;labelBackgroundColor=none;fontSize=12;fontColor=#FFFFFF;align=center;fontFamily=Helvetica;rounded=0;movable=0;resizable=0;rotatable=0;deletable=0;editable=0;connectable=0;" parent="43" vertex="1">
                    <mxGeometry y="80" width="360" height="40" as="geometry"/>
                </mxCell>
                <mxCell id="51" value="owner" style="shape=partialRectangle;whiteSpace=wrap;connectable=0;overflow=hidden;fillColor=none;top=0;left=0;bottom=0;right=0;pointerEvents=1;labelBackgroundColor=none;fontSize=12;fontColor=#FFFFFF;align=center;fontFamily=Helvetica;rounded=0;movable=0;resizable=0;rotatable=0;deletable=0;editable=0;" parent="50" vertex="1">
                    <mxGeometry width="180" height="40" as="geometry">
                        <mxRectangle width="180" height="40" as="alternateBounds"/>
                    </mxGeometry>
                </mxCell>
                <mxCell id="52" value="ForiegnKey" style="shape=partialRectangle;whiteSpace=wrap;connectable=0;overflow=hidden;fillColor=none;top=0;left=0;bottom=0;right=0;pointerEvents=1;labelBackgroundColor=none;fontSize=12;fontColor=#FFFFFF;align=center;fontFamily=Helvetica;rounded=0;movable=0;resizable=0;rotatable=0;deletable=0;editable=0;" parent="50" vertex="1">
                    <mxGeometry x="180" width="180" height="40" as="geometry">
                        <mxRectangle width="180" height="40" as="alternateBounds"/>
                    </mxGeometry>
                </mxCell>
                <mxCell id="53" value="" style="shape=tableRow;horizontal=0;startSize=0;swimlaneHead=0;swimlaneBody=0;top=0;left=0;bottom=0;right=0;collapsible=0;dropTarget=0;fillColor=none;points=[[0,0.5],[1,0.5]];portConstraint=eastwest;labelBackgroundColor=none;fontSize=12;fontColor=#FFFFFF;align=center;fontFamily=Helvetica;rounded=0;movable=0;resizable=0;rotatable=0;deletable=0;editable=0;connectable=0;" parent="43" vertex="1">
                    <mxGeometry y="120" width="360" height="40" as="geometry"/>
                </mxCell>
                <mxCell id="54" value="created_at" style="shape=partialRectangle;whiteSpace=wrap;connectable=0;overflow=hidden;fillColor=none;top=0;left=0;bottom=0;right=0;pointerEvents=1;labelBackgroundColor=none;fontSize=12;fontColor=#FFFFFF;align=center;fontFamily=Helvetica;rounded=0;movable=0;resizable=0;rotatable=0;deletable=0;editable=0;" parent="53" vertex="1">
                    <mxGeometry width="180" height="40" as="geometry">
                        <mxRectangle width="180" height="40" as="alternateBounds"/>
                    </mxGeometry>
                </mxCell>
                <mxCell id="55" value="DateTime" style="shape=partialRectangle;whiteSpace=wrap;connectable=0;overflow=hidden;fillColor=none;top=0;left=0;bottom=0;right=0;pointerEvents=1;labelBackgroundColor=none;fontSize=12;fontColor=#FFFFFF;align=center;fontFamily=Helvetica;rounded=0;movable=0;resizable=0;rotatable=0;deletable=0;editable=0;" parent="53" vertex="1">
                    <mxGeometry x="180" width="180" height="40" as="geometry">
                        <mxRectangle width="180" height="40" as="alternateBounds"/>
                    </mxGeometry>
                </mxCell>
                <mxCell id="56" value="" style="shape=tableRow;horizontal=0;startSize=0;swimlaneHead=0;swimlaneBody=0;top=0;left=0;bottom=0;right=0;collapsible=0;dropTarget=0;fillColor=none;points=[[0,0.5],[1,0.5]];portConstraint=eastwest;labelBackgroundColor=none;fontSize=12;fontColor=#FFFFFF;align=center;fontFamily=Helvetica;rounded=0;movable=0;resizable=0;rotatable=0;deletable=0;editable=0;connectable=0;" parent="43" vertex="1">
                    <mxGeometry y="160" width="360" height="40" as="geometry"/>
                </mxCell>
                <mxCell id="57" value="updated_at" style="shape=partialRectangle;whiteSpace=wrap;connectable=0;overflow=hidden;fillColor=none;top=0;left=0;bottom=0;right=0;pointerEvents=1;labelBackgroundColor=none;fontSize=12;fontColor=#FFFFFF;align=center;fontFamily=Helvetica;rounded=0;movable=0;resizable=0;rotatable=0;deletable=0;editable=0;" parent="56" vertex="1">
                    <mxGeometry width="180" height="40" as="geometry">
                        <mxRectangle width="180" height="40" as="alternateBounds"/>
                    </mxGeometry>
                </mxCell>
                <mxCell id="58" value="DateTime" style="shape=partialRectangle;whiteSpace=wrap;connectable=0;overflow=hidden;fillColor=none;top=0;left=0;bottom=0;right=0;pointerEvents=1;labelBackgroundColor=none;fontSize=12;fontColor=#FFFFFF;align=center;fontFamily=Helvetica;rounded=0;movable=0;resizable=0;rotatable=0;deletable=0;editable=0;" parent="56" vertex="1">
                    <mxGeometry x="180" width="180" height="40" as="geometry">
                        <mxRectangle width="180" height="40" as="alternateBounds"/>
                    </mxGeometry>
                </mxCell>
                <mxCell id="164" style="shape=tableRow;horizontal=0;startSize=0;swimlaneHead=0;swimlaneBody=0;top=0;left=0;bottom=0;right=0;collapsible=0;dropTarget=0;fillColor=none;points=[[0,0.5],[1,0.5]];portConstraint=eastwest;labelBackgroundColor=none;fontSize=12;fontColor=#FFFFFF;align=center;fontFamily=Helvetica;rounded=0;movable=0;resizable=0;rotatable=0;deletable=0;editable=0;connectable=0;" parent="43" vertex="1">
                    <mxGeometry y="200" width="360" height="40" as="geometry"/>
                </mxCell>
                <mxCell id="165" value="month_found" style="shape=partialRectangle;whiteSpace=wrap;connectable=0;overflow=hidden;fillColor=none;top=0;left=0;bottom=0;right=0;pointerEvents=1;labelBackgroundColor=none;fontSize=12;fontColor=#FFFFFF;align=center;fontFamily=Helvetica;rounded=0;movable=0;resizable=0;rotatable=0;deletable=0;editable=0;" parent="164" vertex="1">
                    <mxGeometry width="180" height="40" as="geometry">
                        <mxRectangle width="180" height="40" as="alternateBounds"/>
                    </mxGeometry>
                </mxCell>
                <mxCell id="166" value="Char [Choices]" style="shape=partialRectangle;whiteSpace=wrap;connectable=0;overflow=hidden;fillColor=none;top=0;left=0;bottom=0;right=0;pointerEvents=1;labelBackgroundColor=none;fontSize=12;fontColor=#FFFFFF;align=center;fontFamily=Helvetica;rounded=0;movable=0;resizable=0;rotatable=0;deletable=0;editable=0;" parent="164" vertex="1">
                    <mxGeometry x="180" width="180" height="40" as="geometry">
                        <mxRectangle width="180" height="40" as="alternateBounds"/>
                    </mxGeometry>
                </mxCell>
                <mxCell id="59" value="" style="shape=tableRow;horizontal=0;startSize=0;swimlaneHead=0;swimlaneBody=0;top=0;left=0;bottom=0;right=0;collapsible=0;dropTarget=0;fillColor=none;points=[[0,0.5],[1,0.5]];portConstraint=eastwest;labelBackgroundColor=none;fontSize=12;fontColor=#FFFFFF;align=center;fontFamily=Helvetica;rounded=0;movable=0;resizable=0;rotatable=0;deletable=0;editable=0;connectable=0;" parent="43" vertex="1">
                    <mxGeometry y="240" width="360" height="40" as="geometry"/>
                </mxCell>
                <mxCell id="60" value="main_plant_name" style="shape=partialRectangle;whiteSpace=wrap;connectable=0;overflow=hidden;fillColor=none;top=0;left=0;bottom=0;right=0;pointerEvents=1;labelBackgroundColor=none;fontSize=12;fontColor=#FFFFFF;align=center;fontFamily=Helvetica;rounded=0;movable=0;resizable=0;rotatable=0;deletable=0;editable=0;" parent="59" vertex="1">
                    <mxGeometry width="180" height="40" as="geometry">
                        <mxRectangle width="180" height="40" as="alternateBounds"/>
                    </mxGeometry>
                </mxCell>
                <mxCell id="61" value="Char" style="shape=partialRectangle;whiteSpace=wrap;connectable=0;overflow=hidden;fillColor=none;top=0;left=0;bottom=0;right=0;pointerEvents=1;labelBackgroundColor=none;fontSize=12;fontColor=#FFFFFF;align=center;fontFamily=Helvetica;rounded=0;movable=0;resizable=0;rotatable=0;deletable=0;editable=0;" parent="59" vertex="1">
                    <mxGeometry x="180" width="180" height="40" as="geometry">
                        <mxRectangle width="180" height="40" as="alternateBounds"/>
                    </mxGeometry>
                </mxCell>
                <mxCell id="62" value="" style="shape=tableRow;horizontal=0;startSize=0;swimlaneHead=0;swimlaneBody=0;top=0;left=0;bottom=0;right=0;collapsible=0;dropTarget=0;fillColor=none;points=[[0,0.5],[1,0.5]];portConstraint=eastwest;labelBackgroundColor=none;fontSize=12;fontColor=#FFFFFF;align=center;fontFamily=Helvetica;rounded=0;movable=0;resizable=0;rotatable=0;deletable=0;editable=0;connectable=0;" parent="43" vertex="1">
                    <mxGeometry y="280" width="360" height="40" as="geometry"/>
                </mxCell>
                <mxCell id="63" value="main_plant_environment" style="shape=partialRectangle;whiteSpace=wrap;connectable=0;overflow=hidden;fillColor=none;top=0;left=0;bottom=0;right=0;pointerEvents=1;labelBackgroundColor=none;fontSize=12;fontColor=#FFFFFF;align=center;fontFamily=Helvetica;rounded=0;movable=0;resizable=0;rotatable=0;deletable=0;editable=0;" parent="62" vertex="1">
                    <mxGeometry width="180" height="40" as="geometry">
                        <mxRectangle width="180" height="40" as="alternateBounds"/>
                    </mxGeometry>
                </mxCell>
                <mxCell id="64" value="Text" style="shape=partialRectangle;whiteSpace=wrap;connectable=0;overflow=hidden;fillColor=none;top=0;left=0;bottom=0;right=0;pointerEvents=1;labelBackgroundColor=none;fontSize=12;fontColor=#FFFFFF;align=center;fontFamily=Helvetica;rounded=0;movable=0;resizable=0;rotatable=0;deletable=0;editable=0;" parent="62" vertex="1">
                    <mxGeometry x="180" width="180" height="40" as="geometry">
                        <mxRectangle width="180" height="40" as="alternateBounds"/>
                    </mxGeometry>
                </mxCell>
                <mxCell id="65" value="" style="shape=tableRow;horizontal=0;startSize=0;swimlaneHead=0;swimlaneBody=0;top=0;left=0;bottom=0;right=0;collapsible=0;dropTarget=0;fillColor=none;points=[[0,0.5],[1,0.5]];portConstraint=eastwest;labelBackgroundColor=none;fontSize=12;fontColor=#FFFFFF;align=center;fontFamily=Helvetica;rounded=0;movable=0;resizable=0;rotatable=0;deletable=0;editable=0;connectable=0;" parent="43" vertex="1">
                    <mxGeometry y="320" width="360" height="40" as="geometry"/>
                </mxCell>
                <mxCell id="66" value="culinary_uses" style="shape=partialRectangle;whiteSpace=wrap;connectable=0;overflow=hidden;fillColor=none;top=0;left=0;bottom=0;right=0;pointerEvents=1;labelBackgroundColor=none;fontSize=12;fontColor=#FFFFFF;align=center;fontFamily=Helvetica;rounded=0;movable=0;resizable=0;rotatable=0;deletable=0;editable=0;" parent="65" vertex="1">
                    <mxGeometry width="180" height="40" as="geometry">
                        <mxRectangle width="180" height="40" as="alternateBounds"/>
                    </mxGeometry>
                </mxCell>
                <mxCell id="67" value="Text" style="shape=partialRectangle;whiteSpace=wrap;connectable=0;overflow=hidden;fillColor=none;top=0;left=0;bottom=0;right=0;pointerEvents=1;labelBackgroundColor=none;fontSize=12;fontColor=#FFFFFF;align=center;fontFamily=Helvetica;rounded=0;movable=0;resizable=0;rotatable=0;deletable=0;editable=0;" parent="65" vertex="1">
                    <mxGeometry x="180" width="180" height="40" as="geometry">
                        <mxRectangle width="180" height="40" as="alternateBounds"/>
                    </mxGeometry>
                </mxCell>
                <mxCell id="143" style="shape=tableRow;horizontal=0;startSize=0;swimlaneHead=0;swimlaneBody=0;top=0;left=0;bottom=0;right=0;collapsible=0;dropTarget=0;fillColor=none;points=[[0,0.5],[1,0.5]];portConstraint=eastwest;labelBackgroundColor=none;fontSize=12;fontColor=#FFFFFF;align=center;fontFamily=Helvetica;rounded=0;movable=0;resizable=0;rotatable=0;deletable=0;editable=0;connectable=0;" parent="43" vertex="1">
                    <mxGeometry y="360" width="360" height="40" as="geometry"/>
                </mxCell>
                <mxCell id="144" value="medicinal_uses" style="shape=partialRectangle;whiteSpace=wrap;connectable=0;overflow=hidden;fillColor=none;top=0;left=0;bottom=0;right=0;pointerEvents=1;labelBackgroundColor=none;fontSize=12;fontColor=#FFFFFF;align=center;fontFamily=Helvetica;rounded=0;movable=0;resizable=0;rotatable=0;deletable=0;editable=0;" parent="143" vertex="1">
                    <mxGeometry width="180" height="40" as="geometry">
                        <mxRectangle width="180" height="40" as="alternateBounds"/>
                    </mxGeometry>
                </mxCell>
                <mxCell id="145" value="Text" style="shape=partialRectangle;whiteSpace=wrap;connectable=0;overflow=hidden;fillColor=none;top=0;left=0;bottom=0;right=0;pointerEvents=1;labelBackgroundColor=none;fontSize=12;fontColor=#FFFFFF;align=center;fontFamily=Helvetica;rounded=0;movable=0;resizable=0;rotatable=0;deletable=0;editable=0;" parent="143" vertex="1">
                    <mxGeometry x="180" width="180" height="40" as="geometry">
                        <mxRectangle width="180" height="40" as="alternateBounds"/>
                    </mxGeometry>
                </mxCell>
                <mxCell id="140" style="shape=tableRow;horizontal=0;startSize=0;swimlaneHead=0;swimlaneBody=0;top=0;left=0;bottom=0;right=0;collapsible=0;dropTarget=0;fillColor=none;points=[[0,0.5],[1,0.5]];portConstraint=eastwest;labelBackgroundColor=none;fontSize=12;fontColor=#FFFFFF;align=center;fontFamily=Helvetica;rounded=0;movable=0;resizable=0;rotatable=0;deletable=0;editable=0;connectable=0;" parent="43" vertex="1">
                    <mxGeometry y="400" width="360" height="40" as="geometry"/>
                </mxCell>
                <mxCell id="141" value="folklore" style="shape=partialRectangle;whiteSpace=wrap;connectable=0;overflow=hidden;fillColor=none;top=0;left=0;bottom=0;right=0;pointerEvents=1;labelBackgroundColor=none;fontSize=12;fontColor=#FFFFFF;align=center;fontFamily=Helvetica;rounded=0;movable=0;resizable=0;rotatable=0;deletable=0;editable=0;" parent="140" vertex="1">
                    <mxGeometry width="180" height="40" as="geometry">
                        <mxRectangle width="180" height="40" as="alternateBounds"/>
                    </mxGeometry>
                </mxCell>
                <mxCell id="142" value="Text" style="shape=partialRectangle;whiteSpace=wrap;connectable=0;overflow=hidden;fillColor=none;top=0;left=0;bottom=0;right=0;pointerEvents=1;labelBackgroundColor=none;fontSize=12;fontColor=#FFFFFF;align=center;fontFamily=Helvetica;rounded=0;movable=0;resizable=0;rotatable=0;deletable=0;editable=0;" parent="140" vertex="1">
                    <mxGeometry x="180" width="180" height="40" as="geometry">
                        <mxRectangle width="180" height="40" as="alternateBounds"/>
                    </mxGeometry>
                </mxCell>
                <mxCell id="146" style="shape=tableRow;horizontal=0;startSize=0;swimlaneHead=0;swimlaneBody=0;top=0;left=0;bottom=0;right=0;collapsible=0;dropTarget=0;fillColor=none;points=[[0,0.5],[1,0.5]];portConstraint=eastwest;labelBackgroundColor=none;fontSize=12;fontColor=#FFFFFF;align=center;fontFamily=Helvetica;rounded=0;movable=0;resizable=0;rotatable=0;deletable=0;editable=0;connectable=0;" parent="43" vertex="1">
                    <mxGeometry y="440" width="360" height="40" as="geometry"/>
                </mxCell>
                <mxCell id="147" value="main_plant_image" style="shape=partialRectangle;whiteSpace=wrap;connectable=0;overflow=hidden;fillColor=none;top=0;left=0;bottom=0;right=0;pointerEvents=1;labelBackgroundColor=none;fontSize=12;fontColor=#FFFFFF;align=center;fontFamily=Helvetica;rounded=0;movable=0;resizable=0;rotatable=0;deletable=0;editable=0;" parent="146" vertex="1">
                    <mxGeometry width="180" height="40" as="geometry">
                        <mxRectangle width="180" height="40" as="alternateBounds"/>
                    </mxGeometry>
                </mxCell>
                <mxCell id="148" value="Image" style="shape=partialRectangle;whiteSpace=wrap;connectable=0;overflow=hidden;fillColor=none;top=0;left=0;bottom=0;right=0;pointerEvents=1;labelBackgroundColor=none;fontSize=12;fontColor=#FFFFFF;align=center;fontFamily=Helvetica;rounded=0;movable=0;resizable=0;rotatable=0;deletable=0;editable=0;" parent="146" vertex="1">
                    <mxGeometry x="180" width="180" height="40" as="geometry">
                        <mxRectangle width="180" height="40" as="alternateBounds"/>
                    </mxGeometry>
                </mxCell>
                <mxCell id="149" style="shape=tableRow;horizontal=0;startSize=0;swimlaneHead=0;swimlaneBody=0;top=0;left=0;bottom=0;right=0;collapsible=0;dropTarget=0;fillColor=none;points=[[0,0.5],[1,0.5]];portConstraint=eastwest;labelBackgroundColor=none;fontSize=12;fontColor=#FFFFFF;align=center;fontFamily=Helvetica;rounded=0;movable=0;resizable=0;rotatable=0;deletable=0;editable=0;connectable=0;" parent="43" vertex="1">
                    <mxGeometry y="480" width="360" height="40" as="geometry"/>
                </mxCell>
                <mxCell id="150" value="confusable_plant_name" style="shape=partialRectangle;whiteSpace=wrap;connectable=0;overflow=hidden;fillColor=none;top=0;left=0;bottom=0;right=0;pointerEvents=1;labelBackgroundColor=none;fontSize=12;fontColor=#FFFFFF;align=center;fontFamily=Helvetica;rounded=0;movable=0;resizable=0;rotatable=0;deletable=0;editable=0;" parent="149" vertex="1">
                    <mxGeometry width="180" height="40" as="geometry">
                        <mxRectangle width="180" height="40" as="alternateBounds"/>
                    </mxGeometry>
                </mxCell>
                <mxCell id="151" value="Char" style="shape=partialRectangle;whiteSpace=wrap;connectable=0;overflow=hidden;fillColor=none;top=0;left=0;bottom=0;right=0;pointerEvents=1;labelBackgroundColor=none;fontSize=12;fontColor=#FFFFFF;align=center;fontFamily=Helvetica;rounded=0;movable=0;resizable=0;rotatable=0;deletable=0;editable=0;" parent="149" vertex="1">
                    <mxGeometry x="180" width="180" height="40" as="geometry">
                        <mxRectangle width="180" height="40" as="alternateBounds"/>
                    </mxGeometry>
                </mxCell>
                <mxCell id="152" style="shape=tableRow;horizontal=0;startSize=0;swimlaneHead=0;swimlaneBody=0;top=0;left=0;bottom=0;right=0;collapsible=0;dropTarget=0;fillColor=none;points=[[0,0.5],[1,0.5]];portConstraint=eastwest;labelBackgroundColor=none;fontSize=12;fontColor=#FFFFFF;align=center;fontFamily=Helvetica;rounded=0;movable=0;resizable=0;rotatable=0;deletable=0;editable=0;connectable=0;" parent="43" vertex="1">
                    <mxGeometry y="520" width="360" height="40" as="geometry"/>
                </mxCell>
                <mxCell id="153" value="confusable_plant_information" style="shape=partialRectangle;whiteSpace=wrap;connectable=0;overflow=hidden;fillColor=none;top=0;left=0;bottom=0;right=0;pointerEvents=1;labelBackgroundColor=none;fontSize=12;fontColor=#FFFFFF;align=center;fontFamily=Helvetica;rounded=0;movable=0;resizable=0;rotatable=0;deletable=0;editable=0;" parent="152" vertex="1">
                    <mxGeometry width="180" height="40" as="geometry">
                        <mxRectangle width="180" height="40" as="alternateBounds"/>
                    </mxGeometry>
                </mxCell>
                <mxCell id="154" value="Text" style="shape=partialRectangle;whiteSpace=wrap;connectable=0;overflow=hidden;fillColor=none;top=0;left=0;bottom=0;right=0;pointerEvents=1;labelBackgroundColor=none;fontSize=12;fontColor=#FFFFFF;align=center;fontFamily=Helvetica;rounded=0;movable=0;resizable=0;rotatable=0;deletable=0;editable=0;" parent="152" vertex="1">
                    <mxGeometry x="180" width="180" height="40" as="geometry">
                        <mxRectangle width="180" height="40" as="alternateBounds"/>
                    </mxGeometry>
                </mxCell>
                <mxCell id="155" style="shape=tableRow;horizontal=0;startSize=0;swimlaneHead=0;swimlaneBody=0;top=0;left=0;bottom=0;right=0;collapsible=0;dropTarget=0;fillColor=none;points=[[0,0.5],[1,0.5]];portConstraint=eastwest;labelBackgroundColor=none;fontSize=12;fontColor=#FFFFFF;align=center;fontFamily=Helvetica;rounded=0;movable=0;resizable=0;rotatable=0;deletable=0;editable=0;connectable=0;" parent="43" vertex="1">
                    <mxGeometry y="560" width="360" height="40" as="geometry"/>
                </mxCell>
                <mxCell id="156" value="confusable_plant_warnings" style="shape=partialRectangle;whiteSpace=wrap;connectable=0;overflow=hidden;fillColor=none;top=0;left=0;bottom=0;right=0;pointerEvents=1;labelBackgroundColor=none;fontSize=12;fontColor=#FFFFFF;align=center;fontFamily=Helvetica;rounded=0;movable=0;resizable=0;rotatable=0;deletable=0;editable=0;" parent="155" vertex="1">
                    <mxGeometry width="180" height="40" as="geometry">
                        <mxRectangle width="180" height="40" as="alternateBounds"/>
                    </mxGeometry>
                </mxCell>
                <mxCell id="157" value="Text" style="shape=partialRectangle;whiteSpace=wrap;connectable=0;overflow=hidden;fillColor=none;top=0;left=0;bottom=0;right=0;pointerEvents=1;labelBackgroundColor=none;fontSize=12;fontColor=#FFFFFF;align=center;fontFamily=Helvetica;rounded=0;movable=0;resizable=0;rotatable=0;deletable=0;editable=0;" parent="155" vertex="1">
                    <mxGeometry x="180" width="180" height="40" as="geometry">
                        <mxRectangle width="180" height="40" as="alternateBounds"/>
                    </mxGeometry>
                </mxCell>
                <mxCell id="158" style="shape=tableRow;horizontal=0;startSize=0;swimlaneHead=0;swimlaneBody=0;top=0;left=0;bottom=0;right=0;collapsible=0;dropTarget=0;fillColor=none;points=[[0,0.5],[1,0.5]];portConstraint=eastwest;labelBackgroundColor=none;fontSize=12;fontColor=#FFFFFF;align=center;fontFamily=Helvetica;rounded=0;movable=0;resizable=0;rotatable=0;deletable=0;editable=0;connectable=0;" parent="43" vertex="1">
                    <mxGeometry y="600" width="360" height="40" as="geometry"/>
                </mxCell>
                <mxCell id="159" value="confusable_plant_image" style="shape=partialRectangle;whiteSpace=wrap;connectable=0;overflow=hidden;fillColor=none;top=0;left=0;bottom=0;right=0;pointerEvents=1;labelBackgroundColor=none;fontSize=12;fontColor=#FFFFFF;align=center;fontFamily=Helvetica;rounded=0;movable=0;resizable=0;rotatable=0;deletable=0;editable=0;" parent="158" vertex="1">
                    <mxGeometry width="180" height="40" as="geometry">
                        <mxRectangle width="180" height="40" as="alternateBounds"/>
                    </mxGeometry>
                </mxCell>
                <mxCell id="160" value="Image" style="shape=partialRectangle;whiteSpace=wrap;connectable=0;overflow=hidden;fillColor=none;top=0;left=0;bottom=0;right=0;pointerEvents=1;labelBackgroundColor=none;fontSize=12;fontColor=#FFFFFF;align=center;fontFamily=Helvetica;rounded=0;movable=0;resizable=0;rotatable=0;deletable=0;editable=0;" parent="158" vertex="1">
                    <mxGeometry x="180" width="180" height="40" as="geometry">
                        <mxRectangle width="180" height="40" as="alternateBounds"/>
                    </mxGeometry>
                </mxCell>
                <mxCell id="68" value="" style="shape=table;startSize=0;container=1;collapsible=0;childLayout=tableLayout;hachureGap=4;fontFamily=Helvetica;fontSize=12;align=center;rounded=0;movable=0;resizable=0;rotatable=0;deletable=0;editable=0;connectable=0;" parent="1" vertex="1">
                    <mxGeometry x="330" y="560" width="240" height="280" as="geometry"/>
                </mxCell>
                <mxCell id="69" value="" style="shape=tableRow;horizontal=0;startSize=0;swimlaneHead=0;swimlaneBody=0;top=0;left=0;bottom=0;right=0;collapsible=0;dropTarget=0;fillColor=none;points=[[0,0.5],[1,0.5]];portConstraint=eastwest;hachureGap=4;fontFamily=Helvetica;fontSize=20;align=center;rounded=0;movable=0;resizable=0;rotatable=0;deletable=0;editable=0;connectable=0;" parent="68" vertex="1">
                    <mxGeometry width="240" height="40" as="geometry"/>
                </mxCell>
                <mxCell id="70" value="Comment" style="shape=partialRectangle;whiteSpace=wrap;connectable=0;overflow=hidden;fillColor=none;top=0;left=0;bottom=0;right=0;pointerEvents=1;hachureGap=4;fontFamily=Helvetica;fontSize=12;rowspan=1;colspan=2;align=center;rounded=0;movable=0;resizable=0;rotatable=0;deletable=0;editable=0;" parent="69" vertex="1">
                    <mxGeometry width="240" height="40" as="geometry">
                        <mxRectangle width="120" height="40" as="alternateBounds"/>
                    </mxGeometry>
                </mxCell>
                <mxCell id="71" value="" style="shape=partialRectangle;html=1;whiteSpace=wrap;connectable=0;overflow=hidden;fillColor=none;top=0;left=0;bottom=0;right=0;pointerEvents=1;hachureGap=4;fontFamily=Architects Daughter;fontSource=https%3A%2F%2Ffonts.googleapis.com%2Fcss%3Ffamily%3DArchitects%2BDaughter;fontSize=20;rounded=0;" parent="69" vertex="1" visible="0">
                    <mxGeometry x="120" width="120" height="40" as="geometry">
                        <mxRectangle width="120" height="40" as="alternateBounds"/>
                    </mxGeometry>
                </mxCell>
                <mxCell id="72" value="" style="shape=tableRow;horizontal=0;startSize=0;swimlaneHead=0;swimlaneBody=0;top=0;left=0;bottom=0;right=0;collapsible=0;dropTarget=0;fillColor=none;points=[[0,0.5],[1,0.5]];portConstraint=eastwest;hachureGap=4;fontFamily=Helvetica;fontSize=20;align=center;rounded=0;movable=0;resizable=0;rotatable=0;deletable=0;editable=0;connectable=0;" parent="68" vertex="1">
                    <mxGeometry y="40" width="240" height="40" as="geometry"/>
                </mxCell>
                <mxCell id="73" value="id" style="shape=partialRectangle;whiteSpace=wrap;connectable=0;overflow=hidden;fillColor=none;top=0;left=0;bottom=0;right=0;pointerEvents=1;hachureGap=4;fontFamily=Helvetica;fontSize=12;align=center;rounded=0;movable=0;resizable=0;rotatable=0;deletable=0;editable=0;" parent="72" vertex="1">
                    <mxGeometry width="120" height="40" as="geometry">
                        <mxRectangle width="120" height="40" as="alternateBounds"/>
                    </mxGeometry>
                </mxCell>
                <mxCell id="74" value="BigAuto" style="shape=partialRectangle;whiteSpace=wrap;connectable=0;overflow=hidden;fillColor=none;top=0;left=0;bottom=0;right=0;pointerEvents=1;hachureGap=4;fontFamily=Helvetica;fontSize=12;align=center;rounded=0;movable=0;resizable=0;rotatable=0;deletable=0;editable=0;" parent="72" vertex="1">
                    <mxGeometry x="120" width="120" height="40" as="geometry">
                        <mxRectangle width="120" height="40" as="alternateBounds"/>
                    </mxGeometry>
                </mxCell>
                <mxCell id="75" value="" style="shape=tableRow;horizontal=0;startSize=0;swimlaneHead=0;swimlaneBody=0;top=0;left=0;bottom=0;right=0;collapsible=0;dropTarget=0;fillColor=none;points=[[0,0.5],[1,0.5]];portConstraint=eastwest;hachureGap=4;fontFamily=Helvetica;fontSize=20;align=center;rounded=0;movable=0;resizable=0;rotatable=0;deletable=0;editable=0;connectable=0;" parent="68" vertex="1">
                    <mxGeometry y="80" width="240" height="40" as="geometry"/>
                </mxCell>
                <mxCell id="76" value="owner" style="shape=partialRectangle;whiteSpace=wrap;connectable=0;overflow=hidden;fillColor=none;top=0;left=0;bottom=0;right=0;pointerEvents=1;hachureGap=4;fontFamily=Helvetica;fontSize=12;align=center;rounded=0;movable=0;resizable=0;rotatable=0;deletable=0;editable=0;" parent="75" vertex="1">
                    <mxGeometry width="120" height="40" as="geometry">
                        <mxRectangle width="120" height="40" as="alternateBounds"/>
                    </mxGeometry>
                </mxCell>
                <mxCell id="77" value="ForiegnKey" style="shape=partialRectangle;whiteSpace=wrap;connectable=0;overflow=hidden;fillColor=none;top=0;left=0;bottom=0;right=0;pointerEvents=1;hachureGap=4;fontFamily=Helvetica;fontSize=12;align=center;rounded=0;movable=0;resizable=0;rotatable=0;deletable=0;editable=0;" parent="75" vertex="1">
                    <mxGeometry x="120" width="120" height="40" as="geometry">
                        <mxRectangle width="120" height="40" as="alternateBounds"/>
                    </mxGeometry>
                </mxCell>
                <mxCell id="78" value="" style="shape=tableRow;horizontal=0;startSize=0;swimlaneHead=0;swimlaneBody=0;top=0;left=0;bottom=0;right=0;collapsible=0;dropTarget=0;fillColor=none;points=[[0,0.5],[1,0.5]];portConstraint=eastwest;hachureGap=4;fontFamily=Helvetica;fontSize=20;align=center;rounded=0;movable=0;resizable=0;rotatable=0;deletable=0;editable=0;connectable=0;" parent="68" vertex="1">
                    <mxGeometry y="120" width="240" height="40" as="geometry"/>
                </mxCell>
                <mxCell id="79" value="plant_in_focus_post" style="shape=partialRectangle;whiteSpace=wrap;connectable=0;overflow=hidden;fillColor=none;top=0;left=0;bottom=0;right=0;pointerEvents=1;hachureGap=4;fontFamily=Helvetica;fontSize=12;align=center;rounded=0;movable=0;resizable=0;rotatable=0;deletable=0;editable=0;" parent="78" vertex="1">
                    <mxGeometry width="120" height="40" as="geometry">
                        <mxRectangle width="120" height="40" as="alternateBounds"/>
                    </mxGeometry>
                </mxCell>
                <mxCell id="80" value="ForiegnKey" style="shape=partialRectangle;whiteSpace=wrap;connectable=0;overflow=hidden;fillColor=none;top=0;left=0;bottom=0;right=0;pointerEvents=1;hachureGap=4;fontFamily=Helvetica;fontSize=12;align=center;rounded=0;movable=0;resizable=0;rotatable=0;deletable=0;editable=0;" parent="78" vertex="1">
                    <mxGeometry x="120" width="120" height="40" as="geometry">
                        <mxRectangle width="120" height="40" as="alternateBounds"/>
                    </mxGeometry>
                </mxCell>
                <mxCell id="81" value="" style="shape=tableRow;horizontal=0;startSize=0;swimlaneHead=0;swimlaneBody=0;top=0;left=0;bottom=0;right=0;collapsible=0;dropTarget=0;fillColor=none;points=[[0,0.5],[1,0.5]];portConstraint=eastwest;hachureGap=4;fontFamily=Helvetica;fontSize=20;align=center;rounded=0;movable=0;resizable=0;rotatable=0;deletable=0;editable=0;connectable=0;" parent="68" vertex="1">
                    <mxGeometry y="160" width="240" height="40" as="geometry"/>
                </mxCell>
                <mxCell id="82" value="created_at" style="shape=partialRectangle;whiteSpace=wrap;connectable=0;overflow=hidden;fillColor=none;top=0;left=0;bottom=0;right=0;pointerEvents=1;hachureGap=4;fontFamily=Helvetica;fontSize=12;align=center;rounded=0;movable=0;resizable=0;rotatable=0;deletable=0;editable=0;" parent="81" vertex="1">
                    <mxGeometry width="120" height="40" as="geometry">
                        <mxRectangle width="120" height="40" as="alternateBounds"/>
                    </mxGeometry>
                </mxCell>
                <mxCell id="83" value="DateTime" style="shape=partialRectangle;whiteSpace=wrap;connectable=0;overflow=hidden;fillColor=none;top=0;left=0;bottom=0;right=0;pointerEvents=1;hachureGap=4;fontFamily=Helvetica;fontSize=12;align=center;rounded=0;movable=0;resizable=0;rotatable=0;deletable=0;editable=0;" parent="81" vertex="1">
                    <mxGeometry x="120" width="120" height="40" as="geometry">
                        <mxRectangle width="120" height="40" as="alternateBounds"/>
                    </mxGeometry>
                </mxCell>
                <mxCell id="84" value="" style="shape=tableRow;horizontal=0;startSize=0;swimlaneHead=0;swimlaneBody=0;top=0;left=0;bottom=0;right=0;collapsible=0;dropTarget=0;fillColor=none;points=[[0,0.5],[1,0.5]];portConstraint=eastwest;hachureGap=4;fontFamily=Helvetica;fontSize=20;align=center;rounded=0;movable=0;resizable=0;rotatable=0;deletable=0;editable=0;connectable=0;" parent="68" vertex="1">
                    <mxGeometry y="200" width="240" height="40" as="geometry"/>
                </mxCell>
                <mxCell id="85" value="updated_at" style="shape=partialRectangle;whiteSpace=wrap;connectable=0;overflow=hidden;fillColor=none;top=0;left=0;bottom=0;right=0;pointerEvents=1;hachureGap=4;fontFamily=Helvetica;fontSize=12;align=center;rounded=0;movable=0;resizable=0;rotatable=0;deletable=0;editable=0;" parent="84" vertex="1">
                    <mxGeometry width="120" height="40" as="geometry">
                        <mxRectangle width="120" height="40" as="alternateBounds"/>
                    </mxGeometry>
                </mxCell>
                <mxCell id="86" value="DateTime" style="shape=partialRectangle;whiteSpace=wrap;connectable=0;overflow=hidden;fillColor=none;top=0;left=0;bottom=0;right=0;pointerEvents=1;hachureGap=4;fontFamily=Helvetica;fontSize=12;align=center;rounded=0;movable=0;resizable=0;rotatable=0;deletable=0;editable=0;" parent="84" vertex="1">
                    <mxGeometry x="120" width="120" height="40" as="geometry">
                        <mxRectangle width="120" height="40" as="alternateBounds"/>
                    </mxGeometry>
                </mxCell>
                <mxCell id="87" value="" style="shape=tableRow;horizontal=0;startSize=0;swimlaneHead=0;swimlaneBody=0;top=0;left=0;bottom=0;right=0;collapsible=0;dropTarget=0;fillColor=none;points=[[0,0.5],[1,0.5]];portConstraint=eastwest;hachureGap=4;fontFamily=Helvetica;fontSize=20;align=center;rounded=0;movable=0;resizable=0;rotatable=0;deletable=0;editable=0;connectable=0;" parent="68" vertex="1">
                    <mxGeometry y="240" width="240" height="40" as="geometry"/>
                </mxCell>
                <mxCell id="88" value="content" style="shape=partialRectangle;whiteSpace=wrap;connectable=0;overflow=hidden;fillColor=none;top=0;left=0;bottom=0;right=0;pointerEvents=1;hachureGap=4;fontFamily=Helvetica;fontSize=12;align=center;rounded=0;movable=0;resizable=0;rotatable=0;deletable=0;editable=0;" parent="87" vertex="1">
                    <mxGeometry width="120" height="40" as="geometry">
                        <mxRectangle width="120" height="40" as="alternateBounds"/>
                    </mxGeometry>
                </mxCell>
                <mxCell id="89" value="Text" style="shape=partialRectangle;whiteSpace=wrap;connectable=0;overflow=hidden;fillColor=none;top=0;left=0;bottom=0;right=0;pointerEvents=1;hachureGap=4;fontFamily=Helvetica;fontSize=12;align=center;rounded=0;movable=0;resizable=0;rotatable=0;deletable=0;editable=0;" parent="87" vertex="1">
                    <mxGeometry x="120" width="120" height="40" as="geometry">
                        <mxRectangle width="120" height="40" as="alternateBounds"/>
                    </mxGeometry>
                </mxCell>
                <mxCell id="91" value="" style="shape=table;startSize=0;container=1;collapsible=0;childLayout=tableLayout;hachureGap=4;fontFamily=Helvetica;fontSize=12;html=0;rounded=0;movable=0;resizable=0;rotatable=0;deletable=0;editable=0;connectable=0;" parent="1" vertex="1">
                    <mxGeometry x="140" y="150" width="240" height="320" as="geometry"/>
                </mxCell>
                <mxCell id="92" value="" style="shape=tableRow;horizontal=0;startSize=0;swimlaneHead=0;swimlaneBody=0;top=0;left=0;bottom=0;right=0;collapsible=0;dropTarget=0;fillColor=none;points=[[0,0.5],[1,0.5]];portConstraint=eastwest;hachureGap=4;fontFamily=Helvetica;fontSize=12;html=0;rounded=0;movable=0;resizable=0;rotatable=0;deletable=0;editable=0;connectable=0;" parent="91" vertex="1">
                    <mxGeometry width="240" height="40" as="geometry"/>
                </mxCell>
                <mxCell id="93" value="Profile" style="shape=partialRectangle;html=1;whiteSpace=wrap;connectable=0;overflow=hidden;fillColor=none;top=0;left=0;bottom=0;right=0;pointerEvents=1;hachureGap=4;fontFamily=Helvetica;fontSize=12;rowspan=1;colspan=2;rounded=0;movable=0;resizable=0;rotatable=0;deletable=0;editable=0;" parent="92" vertex="1">
                    <mxGeometry width="240" height="40" as="geometry">
                        <mxRectangle width="120" height="40" as="alternateBounds"/>
                    </mxGeometry>
                </mxCell>
                <mxCell id="94" value="" style="shape=partialRectangle;html=1;whiteSpace=wrap;connectable=0;overflow=hidden;fillColor=none;top=0;left=0;bottom=0;right=0;pointerEvents=1;hachureGap=4;fontFamily=Helvetica;fontSize=12;rounded=0;" parent="92" vertex="1" visible="0">
                    <mxGeometry x="120" width="120" height="40" as="geometry">
                        <mxRectangle width="120" height="40" as="alternateBounds"/>
                    </mxGeometry>
                </mxCell>
                <mxCell id="95" value="" style="shape=tableRow;horizontal=0;startSize=0;swimlaneHead=0;swimlaneBody=0;top=0;left=0;bottom=0;right=0;collapsible=0;dropTarget=0;fillColor=none;points=[[0,0.5],[1,0.5]];portConstraint=eastwest;hachureGap=4;fontFamily=Helvetica;fontSize=12;html=0;rounded=0;movable=0;resizable=0;rotatable=0;deletable=0;editable=0;connectable=0;" parent="91" vertex="1">
                    <mxGeometry y="40" width="240" height="40" as="geometry"/>
                </mxCell>
                <mxCell id="96" value="id" style="shape=partialRectangle;html=1;whiteSpace=wrap;connectable=0;overflow=hidden;fillColor=none;top=0;left=0;bottom=0;right=0;pointerEvents=1;hachureGap=4;fontFamily=Helvetica;fontSize=12;rounded=0;movable=0;resizable=0;rotatable=0;deletable=0;editable=0;" parent="95" vertex="1">
                    <mxGeometry width="120" height="40" as="geometry">
                        <mxRectangle width="120" height="40" as="alternateBounds"/>
                    </mxGeometry>
                </mxCell>
                <mxCell id="97" value="BigAuto" style="shape=partialRectangle;html=1;whiteSpace=wrap;connectable=0;overflow=hidden;fillColor=none;top=0;left=0;bottom=0;right=0;pointerEvents=1;hachureGap=4;fontFamily=Helvetica;fontSize=12;rounded=0;movable=0;resizable=0;rotatable=0;deletable=0;editable=0;" parent="95" vertex="1">
                    <mxGeometry x="120" width="120" height="40" as="geometry">
                        <mxRectangle width="120" height="40" as="alternateBounds"/>
                    </mxGeometry>
                </mxCell>
                <mxCell id="98" value="" style="shape=tableRow;horizontal=0;startSize=0;swimlaneHead=0;swimlaneBody=0;top=0;left=0;bottom=0;right=0;collapsible=0;dropTarget=0;fillColor=none;points=[[0,0.5],[1,0.5]];portConstraint=eastwest;hachureGap=4;fontFamily=Helvetica;fontSize=12;html=0;rounded=0;movable=0;resizable=0;rotatable=0;deletable=0;editable=0;connectable=0;" parent="91" vertex="1">
                    <mxGeometry y="80" width="240" height="40" as="geometry"/>
                </mxCell>
                <mxCell id="99" value="owner" style="shape=partialRectangle;html=1;whiteSpace=wrap;connectable=0;overflow=hidden;fillColor=none;top=0;left=0;bottom=0;right=0;pointerEvents=1;hachureGap=4;fontFamily=Helvetica;fontSize=12;rounded=0;movable=0;resizable=0;rotatable=0;deletable=0;editable=0;" parent="98" vertex="1">
                    <mxGeometry width="120" height="40" as="geometry">
                        <mxRectangle width="120" height="40" as="alternateBounds"/>
                    </mxGeometry>
                </mxCell>
                <mxCell id="100" value="OneToOne" style="shape=partialRectangle;html=1;whiteSpace=wrap;connectable=0;overflow=hidden;fillColor=none;top=0;left=0;bottom=0;right=0;pointerEvents=1;hachureGap=4;fontFamily=Helvetica;fontSize=12;rounded=0;movable=0;resizable=0;rotatable=0;deletable=0;editable=0;" parent="98" vertex="1">
                    <mxGeometry x="120" width="120" height="40" as="geometry">
                        <mxRectangle width="120" height="40" as="alternateBounds"/>
                    </mxGeometry>
                </mxCell>
                <mxCell id="101" value="" style="shape=tableRow;horizontal=0;startSize=0;swimlaneHead=0;swimlaneBody=0;top=0;left=0;bottom=0;right=0;collapsible=0;dropTarget=0;fillColor=none;points=[[0,0.5],[1,0.5]];portConstraint=eastwest;hachureGap=4;fontFamily=Helvetica;fontSize=12;html=0;rounded=0;movable=0;resizable=0;rotatable=0;deletable=0;editable=0;connectable=0;" parent="91" vertex="1">
                    <mxGeometry y="120" width="240" height="40" as="geometry"/>
                </mxCell>
                <mxCell id="102" value="created_at" style="shape=partialRectangle;html=1;whiteSpace=wrap;connectable=0;overflow=hidden;fillColor=none;top=0;left=0;bottom=0;right=0;pointerEvents=1;hachureGap=4;fontFamily=Helvetica;fontSize=12;rounded=0;movable=0;resizable=0;rotatable=0;deletable=0;editable=0;" parent="101" vertex="1">
                    <mxGeometry width="120" height="40" as="geometry">
                        <mxRectangle width="120" height="40" as="alternateBounds"/>
                    </mxGeometry>
                </mxCell>
                <mxCell id="103" value="&#10;&lt;span style=&quot;color: rgb(240, 240, 240); font-family: Helvetica; font-size: 12px; font-style: normal; font-variant-ligatures: normal; font-variant-caps: normal; font-weight: 400; letter-spacing: normal; orphans: 2; text-align: center; text-indent: 0px; text-transform: none; widows: 2; word-spacing: 0px; -webkit-text-stroke-width: 0px; background-color: rgb(42, 37, 47); text-decoration-thickness: initial; text-decoration-style: initial; text-decoration-color: initial; float: none; display: inline !important;&quot;&gt;DateTime&lt;/span&gt;&#10;&#10;" style="shape=partialRectangle;html=1;whiteSpace=wrap;connectable=0;overflow=hidden;fillColor=none;top=0;left=0;bottom=0;right=0;pointerEvents=1;hachureGap=4;fontFamily=Helvetica;fontSize=12;rounded=0;movable=0;resizable=0;rotatable=0;deletable=0;editable=0;" parent="101" vertex="1">
                    <mxGeometry x="120" width="120" height="40" as="geometry">
                        <mxRectangle width="120" height="40" as="alternateBounds"/>
                    </mxGeometry>
                </mxCell>
                <mxCell id="104" value="" style="shape=tableRow;horizontal=0;startSize=0;swimlaneHead=0;swimlaneBody=0;top=0;left=0;bottom=0;right=0;collapsible=0;dropTarget=0;fillColor=none;points=[[0,0.5],[1,0.5]];portConstraint=eastwest;hachureGap=4;fontFamily=Helvetica;fontSize=12;html=0;rounded=0;movable=0;resizable=0;rotatable=0;deletable=0;editable=0;connectable=0;" parent="91" vertex="1">
                    <mxGeometry y="160" width="240" height="40" as="geometry"/>
                </mxCell>
                <mxCell id="105" value="updated_at" style="shape=partialRectangle;html=1;whiteSpace=wrap;connectable=0;overflow=hidden;fillColor=none;top=0;left=0;bottom=0;right=0;pointerEvents=1;hachureGap=4;fontFamily=Helvetica;fontSize=12;rounded=0;movable=0;resizable=0;rotatable=0;deletable=0;editable=0;" parent="104" vertex="1">
                    <mxGeometry width="120" height="40" as="geometry">
                        <mxRectangle width="120" height="40" as="alternateBounds"/>
                    </mxGeometry>
                </mxCell>
                <mxCell id="106" value="DateTime" style="shape=partialRectangle;html=1;whiteSpace=wrap;connectable=0;overflow=hidden;fillColor=none;top=0;left=0;bottom=0;right=0;pointerEvents=1;hachureGap=4;fontFamily=Helvetica;fontSize=12;rounded=0;movable=0;resizable=0;rotatable=0;deletable=0;editable=0;" parent="104" vertex="1">
                    <mxGeometry x="120" width="120" height="40" as="geometry">
                        <mxRectangle width="120" height="40" as="alternateBounds"/>
                    </mxGeometry>
                </mxCell>
                <mxCell id="107" value="" style="shape=tableRow;horizontal=0;startSize=0;swimlaneHead=0;swimlaneBody=0;top=0;left=0;bottom=0;right=0;collapsible=0;dropTarget=0;fillColor=none;points=[[0,0.5],[1,0.5]];portConstraint=eastwest;hachureGap=4;fontFamily=Helvetica;fontSize=12;html=0;rounded=0;movable=0;resizable=0;rotatable=0;deletable=0;editable=0;connectable=0;" parent="91" vertex="1">
                    <mxGeometry y="200" width="240" height="40" as="geometry"/>
                </mxCell>
                <mxCell id="108" value="name" style="shape=partialRectangle;html=1;whiteSpace=wrap;connectable=0;overflow=hidden;fillColor=none;top=0;left=0;bottom=0;right=0;pointerEvents=1;hachureGap=4;fontFamily=Helvetica;fontSize=12;rounded=0;movable=0;resizable=0;rotatable=0;deletable=0;editable=0;" parent="107" vertex="1">
                    <mxGeometry width="120" height="40" as="geometry">
                        <mxRectangle width="120" height="40" as="alternateBounds"/>
                    </mxGeometry>
                </mxCell>
                <mxCell id="109" value="Char" style="shape=partialRectangle;html=1;whiteSpace=wrap;connectable=0;overflow=hidden;fillColor=none;top=0;left=0;bottom=0;right=0;pointerEvents=1;hachureGap=4;fontFamily=Helvetica;fontSize=12;rounded=0;movable=0;resizable=0;rotatable=0;deletable=0;editable=0;" parent="107" vertex="1">
                    <mxGeometry x="120" width="120" height="40" as="geometry">
                        <mxRectangle width="120" height="40" as="alternateBounds"/>
                    </mxGeometry>
                </mxCell>
                <mxCell id="110" value="" style="shape=tableRow;horizontal=0;startSize=0;swimlaneHead=0;swimlaneBody=0;top=0;left=0;bottom=0;right=0;collapsible=0;dropTarget=0;fillColor=none;points=[[0,0.5],[1,0.5]];portConstraint=eastwest;hachureGap=4;fontFamily=Helvetica;fontSize=12;html=0;rounded=0;movable=0;resizable=0;rotatable=0;deletable=0;editable=0;connectable=0;" parent="91" vertex="1">
                    <mxGeometry y="240" width="240" height="40" as="geometry"/>
                </mxCell>
                <mxCell id="111" value="content" style="shape=partialRectangle;html=1;whiteSpace=wrap;connectable=0;overflow=hidden;fillColor=none;top=0;left=0;bottom=0;right=0;pointerEvents=1;hachureGap=4;fontFamily=Helvetica;fontSize=12;rounded=0;movable=0;resizable=0;rotatable=0;deletable=0;editable=0;" parent="110" vertex="1">
                    <mxGeometry width="120" height="40" as="geometry">
                        <mxRectangle width="120" height="40" as="alternateBounds"/>
                    </mxGeometry>
                </mxCell>
                <mxCell id="112" value="Text" style="shape=partialRectangle;html=1;whiteSpace=wrap;connectable=0;overflow=hidden;fillColor=none;top=0;left=0;bottom=0;right=0;pointerEvents=1;hachureGap=4;fontFamily=Helvetica;fontSize=12;rounded=0;movable=0;resizable=0;rotatable=0;deletable=0;editable=0;" parent="110" vertex="1">
                    <mxGeometry x="120" width="120" height="40" as="geometry">
                        <mxRectangle width="120" height="40" as="alternateBounds"/>
                    </mxGeometry>
                </mxCell>
                <mxCell id="113" value="" style="shape=tableRow;horizontal=0;startSize=0;swimlaneHead=0;swimlaneBody=0;top=0;left=0;bottom=0;right=0;collapsible=0;dropTarget=0;fillColor=none;points=[[0,0.5],[1,0.5]];portConstraint=eastwest;hachureGap=4;fontFamily=Helvetica;fontSize=12;html=0;rounded=0;movable=0;resizable=0;rotatable=0;deletable=0;editable=0;connectable=0;" parent="91" vertex="1">
                    <mxGeometry y="280" width="240" height="40" as="geometry"/>
                </mxCell>
                <mxCell id="114" value="image" style="shape=partialRectangle;html=1;whiteSpace=wrap;connectable=0;overflow=hidden;fillColor=none;top=0;left=0;bottom=0;right=0;pointerEvents=1;hachureGap=4;fontFamily=Helvetica;fontSize=12;rounded=0;movable=0;resizable=0;rotatable=0;deletable=0;editable=0;" parent="113" vertex="1">
                    <mxGeometry width="120" height="40" as="geometry">
                        <mxRectangle width="120" height="40" as="alternateBounds"/>
                    </mxGeometry>
                </mxCell>
                <mxCell id="115" value="Image" style="shape=partialRectangle;html=1;whiteSpace=wrap;connectable=0;overflow=hidden;fillColor=none;top=0;left=0;bottom=0;right=0;pointerEvents=1;hachureGap=4;fontFamily=Helvetica;fontSize=12;rounded=0;movable=0;resizable=0;rotatable=0;deletable=0;editable=0;" parent="113" vertex="1">
                    <mxGeometry x="120" width="120" height="40" as="geometry">
                        <mxRectangle width="120" height="40" as="alternateBounds"/>
                    </mxGeometry>
                </mxCell>
                <mxCell id="116" value="" style="shape=table;startSize=0;container=1;collapsible=0;childLayout=tableLayout;hachureGap=4;fontFamily=Helvetica;fontSize=12;html=0;rounded=0;movable=0;resizable=0;rotatable=0;deletable=0;editable=0;connectable=0;" parent="1" vertex="1">
                    <mxGeometry x="1250" y="430" width="240" height="240" as="geometry"/>
                </mxCell>
                <mxCell id="117" value="" style="shape=tableRow;horizontal=0;startSize=0;swimlaneHead=0;swimlaneBody=0;top=0;left=0;bottom=0;right=0;collapsible=0;dropTarget=0;fillColor=none;points=[[0,0.5],[1,0.5]];portConstraint=eastwest;hachureGap=4;fontFamily=Helvetica;fontSize=12;html=0;rounded=0;movable=0;resizable=0;rotatable=0;deletable=0;editable=0;connectable=0;" parent="116" vertex="1">
                    <mxGeometry width="240" height="40" as="geometry"/>
                </mxCell>
                <mxCell id="118" value="Like" style="shape=partialRectangle;html=1;whiteSpace=wrap;connectable=0;overflow=hidden;fillColor=none;top=0;left=0;bottom=0;right=0;pointerEvents=1;hachureGap=4;fontFamily=Helvetica;fontSize=12;rowspan=1;colspan=2;rounded=0;movable=0;resizable=0;rotatable=0;deletable=0;editable=0;" parent="117" vertex="1">
                    <mxGeometry width="240" height="40" as="geometry">
                        <mxRectangle width="120" height="40" as="alternateBounds"/>
                    </mxGeometry>
                </mxCell>
                <mxCell id="119" value="" style="shape=partialRectangle;html=1;whiteSpace=wrap;connectable=0;overflow=hidden;fillColor=none;top=0;left=0;bottom=0;right=0;pointerEvents=1;hachureGap=4;fontFamily=Helvetica;fontSize=12;rounded=0;" parent="117" vertex="1" visible="0">
                    <mxGeometry x="120" width="120" height="40" as="geometry">
                        <mxRectangle width="120" height="40" as="alternateBounds"/>
                    </mxGeometry>
                </mxCell>
                <mxCell id="120" value="" style="shape=tableRow;horizontal=0;startSize=0;swimlaneHead=0;swimlaneBody=0;top=0;left=0;bottom=0;right=0;collapsible=0;dropTarget=0;fillColor=none;points=[[0,0.5],[1,0.5]];portConstraint=eastwest;hachureGap=4;fontFamily=Helvetica;fontSize=12;html=0;rounded=0;movable=0;resizable=0;rotatable=0;deletable=0;editable=0;connectable=0;" parent="116" vertex="1">
                    <mxGeometry y="40" width="240" height="40" as="geometry"/>
                </mxCell>
                <mxCell id="121" value="id" style="shape=partialRectangle;html=1;whiteSpace=wrap;connectable=0;overflow=hidden;fillColor=none;top=0;left=0;bottom=0;right=0;pointerEvents=1;hachureGap=4;fontFamily=Helvetica;fontSize=12;rounded=0;movable=0;resizable=0;rotatable=0;deletable=0;editable=0;" parent="120" vertex="1">
                    <mxGeometry width="120" height="40" as="geometry">
                        <mxRectangle width="120" height="40" as="alternateBounds"/>
                    </mxGeometry>
                </mxCell>
                <mxCell id="122" value="BigAuto" style="shape=partialRectangle;html=1;whiteSpace=wrap;connectable=0;overflow=hidden;fillColor=none;top=0;left=0;bottom=0;right=0;pointerEvents=1;hachureGap=4;fontFamily=Helvetica;fontSize=12;rounded=0;movable=0;resizable=0;rotatable=0;deletable=0;editable=0;" parent="120" vertex="1">
                    <mxGeometry x="120" width="120" height="40" as="geometry">
                        <mxRectangle width="120" height="40" as="alternateBounds"/>
                    </mxGeometry>
                </mxCell>
                <mxCell id="123" value="" style="shape=tableRow;horizontal=0;startSize=0;swimlaneHead=0;swimlaneBody=0;top=0;left=0;bottom=0;right=0;collapsible=0;dropTarget=0;fillColor=none;points=[[0,0.5],[1,0.5]];portConstraint=eastwest;hachureGap=4;fontFamily=Helvetica;fontSize=12;html=0;rounded=0;movable=0;resizable=0;rotatable=0;deletable=0;editable=0;connectable=0;" parent="116" vertex="1">
                    <mxGeometry y="80" width="240" height="40" as="geometry"/>
                </mxCell>
                <mxCell id="124" value="owner" style="shape=partialRectangle;html=1;whiteSpace=wrap;connectable=0;overflow=hidden;fillColor=none;top=0;left=0;bottom=0;right=0;pointerEvents=1;hachureGap=4;fontFamily=Helvetica;fontSize=12;rounded=0;movable=0;resizable=0;rotatable=0;deletable=0;editable=0;" parent="123" vertex="1">
                    <mxGeometry width="120" height="40" as="geometry">
                        <mxRectangle width="120" height="40" as="alternateBounds"/>
                    </mxGeometry>
                </mxCell>
                <mxCell id="125" value="ForiegnKey" style="shape=partialRectangle;html=1;whiteSpace=wrap;connectable=0;overflow=hidden;fillColor=none;top=0;left=0;bottom=0;right=0;pointerEvents=1;hachureGap=4;fontFamily=Helvetica;fontSize=12;rounded=0;movable=0;resizable=0;rotatable=0;deletable=0;editable=0;" parent="123" vertex="1">
                    <mxGeometry x="120" width="120" height="40" as="geometry">
                        <mxRectangle width="120" height="40" as="alternateBounds"/>
                    </mxGeometry>
                </mxCell>
                <mxCell id="126" value="" style="shape=tableRow;horizontal=0;startSize=0;swimlaneHead=0;swimlaneBody=0;top=0;left=0;bottom=0;right=0;collapsible=0;dropTarget=0;fillColor=none;points=[[0,0.5],[1,0.5]];portConstraint=eastwest;hachureGap=4;fontFamily=Helvetica;fontSize=12;html=0;rounded=0;movable=0;resizable=0;rotatable=0;deletable=0;editable=0;connectable=0;" parent="116" vertex="1">
                    <mxGeometry y="120" width="240" height="40" as="geometry"/>
                </mxCell>
                <mxCell id="127" value="plant_in_focus_post" style="shape=partialRectangle;html=1;whiteSpace=wrap;connectable=0;overflow=hidden;fillColor=none;top=0;left=0;bottom=0;right=0;pointerEvents=1;hachureGap=4;fontFamily=Helvetica;fontSize=12;rounded=0;movable=0;resizable=0;rotatable=0;deletable=0;editable=0;" parent="126" vertex="1">
                    <mxGeometry width="120" height="40" as="geometry">
                        <mxRectangle width="120" height="40" as="alternateBounds"/>
                    </mxGeometry>
                </mxCell>
                <mxCell id="128" value="ForiegnKey" style="shape=partialRectangle;html=1;whiteSpace=wrap;connectable=0;overflow=hidden;fillColor=none;top=0;left=0;bottom=0;right=0;pointerEvents=1;hachureGap=4;fontFamily=Helvetica;fontSize=12;rounded=0;movable=0;resizable=0;rotatable=0;deletable=0;editable=0;" parent="126" vertex="1">
                    <mxGeometry x="120" width="120" height="40" as="geometry">
                        <mxRectangle width="120" height="40" as="alternateBounds"/>
                    </mxGeometry>
                </mxCell>
                <mxCell id="129" value="" style="shape=tableRow;horizontal=0;startSize=0;swimlaneHead=0;swimlaneBody=0;top=0;left=0;bottom=0;right=0;collapsible=0;dropTarget=0;fillColor=none;points=[[0,0.5],[1,0.5]];portConstraint=eastwest;hachureGap=4;fontFamily=Helvetica;fontSize=12;html=0;rounded=0;movable=0;resizable=0;rotatable=0;deletable=0;editable=0;connectable=0;" parent="116" vertex="1">
                    <mxGeometry y="160" width="240" height="40" as="geometry"/>
                </mxCell>
                <mxCell id="130" value="comment" style="shape=partialRectangle;html=1;whiteSpace=wrap;connectable=0;overflow=hidden;fillColor=none;top=0;left=0;bottom=0;right=0;pointerEvents=1;hachureGap=4;fontFamily=Helvetica;fontSize=12;rounded=0;movable=0;resizable=0;rotatable=0;deletable=0;editable=0;" parent="129" vertex="1">
                    <mxGeometry width="120" height="40" as="geometry">
                        <mxRectangle width="120" height="40" as="alternateBounds"/>
                    </mxGeometry>
                </mxCell>
                <mxCell id="131" value="ForiegnKey" style="shape=partialRectangle;html=1;whiteSpace=wrap;connectable=0;overflow=hidden;fillColor=none;top=0;left=0;bottom=0;right=0;pointerEvents=1;hachureGap=4;fontFamily=Helvetica;fontSize=12;rounded=0;movable=0;resizable=0;rotatable=0;deletable=0;editable=0;" parent="129" vertex="1">
                    <mxGeometry x="120" width="120" height="40" as="geometry">
                        <mxRectangle width="120" height="40" as="alternateBounds"/>
                    </mxGeometry>
                </mxCell>
                <mxCell id="137" style="shape=tableRow;horizontal=0;startSize=0;swimlaneHead=0;swimlaneBody=0;top=0;left=0;bottom=0;right=0;collapsible=0;dropTarget=0;fillColor=none;points=[[0,0.5],[1,0.5]];portConstraint=eastwest;hachureGap=4;fontFamily=Helvetica;fontSize=12;html=0;rounded=0;movable=0;resizable=0;rotatable=0;deletable=0;editable=0;connectable=0;" parent="116" vertex="1">
                    <mxGeometry y="200" width="240" height="40" as="geometry"/>
                </mxCell>
                <mxCell id="138" value="created_at" style="shape=partialRectangle;html=1;whiteSpace=wrap;connectable=0;overflow=hidden;fillColor=none;top=0;left=0;bottom=0;right=0;pointerEvents=1;hachureGap=4;fontFamily=Helvetica;fontSize=12;rounded=0;movable=0;resizable=0;rotatable=0;deletable=0;editable=0;" parent="137" vertex="1">
                    <mxGeometry width="120" height="40" as="geometry">
                        <mxRectangle width="120" height="40" as="alternateBounds"/>
                    </mxGeometry>
                </mxCell>
                <mxCell id="139" value="DateTime" style="shape=partialRectangle;html=1;whiteSpace=wrap;connectable=0;overflow=hidden;fillColor=none;top=0;left=0;bottom=0;right=0;pointerEvents=1;hachureGap=4;fontFamily=Helvetica;fontSize=12;rounded=0;movable=0;resizable=0;rotatable=0;deletable=0;editable=0;" parent="137" vertex="1">
                    <mxGeometry x="120" width="120" height="40" as="geometry">
                        <mxRectangle width="120" height="40" as="alternateBounds"/>
                    </mxGeometry>
                </mxCell>
                <mxCell id="175" value="" style="edgeStyle=orthogonalEdgeStyle;fontSize=12;html=1;endArrow=ERzeroToMany;startArrow=ERmandOne;exitX=1;exitY=0.5;exitDx=0;exitDy=0;entryX=0.879;entryY=-0.025;entryDx=0;entryDy=0;entryPerimeter=0;strokeWidth=3;movable=0;resizable=0;rotatable=0;deletable=0;editable=0;connectable=0;" parent="1" source="6" target="117" edge="1">
                    <mxGeometry width="100" height="100" relative="1" as="geometry">
                        <mxPoint x="1300" y="180" as="sourcePoint"/>
                        <mxPoint x="1530" y="310" as="targetPoint"/>
                    </mxGeometry>
                </mxCell>
                <mxCell id="176" value="" style="edgeStyle=orthogonalEdgeStyle;fontSize=12;html=1;endArrow=ERzeroToMany;startArrow=ERmandOne;entryX=0.5;entryY=0;entryDx=0;entryDy=0;entryPerimeter=0;strokeWidth=3;movable=0;resizable=0;rotatable=0;deletable=0;editable=0;connectable=0;" parent="1" source="47" target="117" edge="1">
                    <mxGeometry width="100" height="100" relative="1" as="geometry">
                        <mxPoint x="1370" y="320" as="sourcePoint"/>
                        <mxPoint x="1440" y="310" as="targetPoint"/>
                    </mxGeometry>
                </mxCell>
                <mxCell id="177" value="" style="edgeStyle=orthogonalEdgeStyle;fontSize=12;html=1;endArrow=ERzeroToMany;startArrow=ERmandOne;exitX=1;exitY=0.258;exitDx=0;exitDy=0;exitPerimeter=0;strokeWidth=3;movable=0;resizable=0;rotatable=0;deletable=0;editable=0;connectable=0;" parent="1" source="9" edge="1">
                    <mxGeometry width="100" height="100" relative="1" as="geometry">
                        <mxPoint x="950" y="190" as="sourcePoint"/>
                        <mxPoint x="1010" y="130" as="targetPoint"/>
                        <Array as="points">
                            <mxPoint x="1010" y="81"/>
                            <mxPoint x="1010" y="130"/>
                        </Array>
                    </mxGeometry>
                </mxCell>
                <mxCell id="178" value="" style="edgeStyle=orthogonalEdgeStyle;fontSize=12;html=1;endArrow=ERzeroToMany;startArrow=ERmandOne;entryX=0.672;entryY=-0.01;entryDx=0;entryDy=0;entryPerimeter=0;strokeWidth=3;exitX=-0.008;exitY=-0.06;exitDx=0;exitDy=0;exitPerimeter=0;movable=0;resizable=0;rotatable=0;deletable=0;editable=0;connectable=0;" parent="1" source="143" target="69" edge="1">
                    <mxGeometry width="100" height="100" relative="1" as="geometry">
                        <mxPoint x="650" y="510" as="sourcePoint"/>
                        <mxPoint x="560" y="620" as="targetPoint"/>
                    </mxGeometry>
                </mxCell>
                <mxCell id="179" value="" style="fontSize=12;html=1;endArrow=ERzeroToMany;startArrow=ERmandOne;exitX=0.116;exitY=1.019;exitDx=0;exitDy=0;exitPerimeter=0;strokeWidth=3;entryX=0.253;entryY=-0.06;entryDx=0;entryDy=0;entryPerimeter=0;movable=0;resizable=0;rotatable=0;deletable=0;editable=0;connectable=0;" parent="1" source="15" target="19" edge="1">
                    <mxGeometry width="100" height="100" relative="1" as="geometry">
                        <mxPoint x="570" y="270" as="sourcePoint"/>
                        <mxPoint x="580" y="200" as="targetPoint"/>
                    </mxGeometry>
                </mxCell>
                <mxCell id="180" value="" style="fontSize=12;html=1;endArrow=ERzeroToMany;startArrow=ERmandOne;entryX=0.664;entryY=-0.033;entryDx=0;entryDy=0;entryPerimeter=0;exitX=0.741;exitY=1.043;exitDx=0;exitDy=0;exitPerimeter=0;strokeWidth=3;movable=0;resizable=0;rotatable=0;deletable=0;editable=0;connectable=0;" parent="1" source="15" target="19" edge="1">
                    <mxGeometry width="100" height="100" relative="1" as="geometry">
                        <mxPoint x="720" y="420" as="sourcePoint"/>
                        <mxPoint x="820" y="320" as="targetPoint"/>
                    </mxGeometry>
                </mxCell>
                <mxCell id="181" value="" style="edgeStyle=orthogonalEdgeStyle;fontSize=12;html=1;endArrow=ERzeroToMany;startArrow=ERmandOne;strokeWidth=3;exitX=0;exitY=0.152;exitDx=0;exitDy=0;exitPerimeter=0;movable=0;resizable=0;rotatable=0;deletable=0;editable=0;connectable=0;" parent="1" source="12" edge="1">
                    <mxGeometry width="100" height="100" relative="1" as="geometry">
                        <mxPoint x="510" y="120" as="sourcePoint"/>
                        <mxPoint x="440" y="560" as="targetPoint"/>
                    </mxGeometry>
                </mxCell>
                <mxCell id="182" value="" style="edgeStyle=orthogonalEdgeStyle;fontSize=12;html=1;endArrow=ERmandOne;startArrow=ERmandOne;strokeWidth=3;entryX=-0.004;entryY=0.345;entryDx=0;entryDy=0;entryPerimeter=0;exitX=0.375;exitY=-0.051;exitDx=0;exitDy=0;exitPerimeter=0;movable=0;resizable=0;rotatable=0;deletable=0;editable=0;connectable=0;" parent="1" source="92" target="6" edge="1">
                    <mxGeometry width="100" height="100" relative="1" as="geometry">
                        <mxPoint x="231" y="140" as="sourcePoint"/>
                        <mxPoint x="640" y="40" as="targetPoint"/>
                        <Array as="points">
                            <mxPoint x="230" y="51"/>
                        </Array>
                    </mxGeometry>
                </mxCell>
                <mxCell id="183" value="" style="edgeStyle=orthogonalEdgeStyle;fontSize=12;html=1;endArrow=ERzeroToMany;startArrow=ERmandOne;strokeWidth=3;exitX=0.714;exitY=1.055;exitDx=0;exitDy=0;exitPerimeter=0;movable=0;resizable=0;rotatable=0;deletable=0;editable=0;connectable=0;" parent="1" source="87" target="137" edge="1">
                    <mxGeometry width="100" height="100" relative="1" as="geometry">
                        <mxPoint x="570" y="790" as="sourcePoint"/>
                        <mxPoint x="930" y="840" as="targetPoint"/>
                        <Array as="points">
                            <mxPoint x="501" y="890"/>
                            <mxPoint x="1340" y="890"/>
                        </Array>
                    </mxGeometry>
                </mxCell>
            </root>
        </mxGraphModel>
    </diagram>
</mxfile>